HIERARCHY
ROOT Hips
{
	OFFSET -0.001795 -0.223333 0.028219
	CHANNELS 6 Xposition Yposition Zposition Zrotation Yrotation Xrotation 
	JOINT LeftUpLeg
	{
		OFFSET 0.069520 -0.091406 -0.006815
		CHANNELS 3 Zrotation Yrotation Xrotation
		JOINT LeftLeg
		{
			OFFSET 0.034277 -0.375199 -0.004496
			CHANNELS 3 Zrotation Yrotation Xrotation
			JOINT LeftFoot
			{
				OFFSET -0.013596 -0.397961 -0.043693
				CHANNELS 3 Zrotation Yrotation Xrotation
				JOINT LeftToe
				{
					OFFSET 0.026358 -0.055791 0.119288
					CHANNELS 3 Zrotation Yrotation Xrotation
					End Site
					{
						OFFSET 0.000000 0.000000 0.000000
					}
				}
			}
		}
	}
	JOINT RightUpLeg
	{
		OFFSET -0.067670 -0.090522 -0.004320
		CHANNELS 3 Zrotation Yrotation Xrotation
		JOINT RightLeg
		{
			OFFSET -0.038290 -0.382569 -0.008850
			CHANNELS 3 Zrotation Yrotation Xrotation
			JOINT RightFoot
			{
				OFFSET 0.015774 -0.398415 -0.042312
				CHANNELS 3 Zrotation Yrotation Xrotation
				JOINT RightToe
				{
					OFFSET -0.025372 -0.048144 0.123348
					CHANNELS 3 Zrotation Yrotation Xrotation
					End Site
					{
						OFFSET 0.000000 0.000000 0.000000
					}
				}
			}
		}
	}
	JOINT Spine
	{
		OFFSET -0.002533 0.108963 -0.026696
		CHANNELS 3 Zrotation Yrotation Xrotation
		JOINT Spine1
		{
			OFFSET 0.005487 0.135180 0.001092
			CHANNELS 3 Zrotation Yrotation Xrotation
			JOINT Spine2
			{
				OFFSET 0.001457 0.052922 0.025425
				CHANNELS 3 Zrotation Yrotation Xrotation
				JOINT Neck
				{
					OFFSET -0.002778 0.213870 -0.042857
					CHANNELS 3 Zrotation Yrotation Xrotation
					JOINT Head
					{
						OFFSET 0.005152 0.064970 0.051349
						CHANNELS 3 Zrotation Yrotation Xrotation
						End Site
						{
							OFFSET 0.000000 0.000000 0.000000
						}
					}
				}
				JOINT LeftShoulder
				{
					OFFSET 0.078845 0.121749 -0.034090
					CHANNELS 3 Zrotation Yrotation Xrotation
					JOINT LeftArm
					{
						OFFSET 0.090977 0.030469 -0.008868
						CHANNELS 3 Zrotation Yrotation Xrotation
						JOINT LeftForeArm
						{
							OFFSET 0.259612 -0.012772 -0.027456
							CHANNELS 3 Zrotation Yrotation Xrotation
							JOINT LeftHand
							{
								OFFSET 0.249234 0.008986 -0.001171
								CHANNELS 3 Zrotation Yrotation Xrotation
								End Site
								{
									OFFSET 0.000000 0.000000 0.000000
								}
							}
						}
					}
				}
				JOINT RightShoulder
				{
					OFFSET -0.081759 0.118833 -0.038615
					CHANNELS 3 Zrotation Yrotation Xrotation
					JOINT RightArm
					{
						OFFSET -0.096012 0.032551 -0.009143
						CHANNELS 3 Zrotation Yrotation Xrotation
						JOINT RightForeArm
						{
							OFFSET -0.253742 -0.013329 -0.021401
							CHANNELS 3 Zrotation Yrotation Xrotation
							JOINT RightHand
							{
								OFFSET -0.255298 0.007772 -0.005559
								CHANNELS 3 Zrotation Yrotation Xrotation
								End Site
								{
									OFFSET 0.000000 0.000000 0.000000
								}
							}
						}
					}
				}
			}
		}
	}
}
MOTION
Frames: 17
Frame Time: 0.050000
-0.003902 0.888573 -0.147077 -4.689899 -3.872177 14.000517 16.742205 1.837290 -31.829562 -5.851356 1.692836 28.035335 -2.749565 -9.178137 -5.116673 0.000000 0.000000 0.000000 -3.348769 3.032909 -33.720641 3.294696 0.571769 36.002351 -3.965796 -3.643223 -14.500273 0.000000 0.000000 0.000000 -0.166684 -0.592073 16.901163 -0.739071 0.409726 -6.518635 -7.587630 5.256828 3.397821 19.024452 -8.083579 -21.881181 0.000000 0.000000 0.000000 -10.713796 -5.849705 0.898069 -10.857955 2.897806 -1.174360 -38.430019 -50.927220 20.164469 0.000000 0.000000 0.000000 11.512248 -3.544678 -2.047321 18.569528 -8.312442 -2.571297 44.894994 42.542067 19.930280 0.000000 0.000000 0.000000 
-0.004444 0.902711 -0.145507 -4.383278 -3.210925 14.139166 15.589230 1.277802 -30.008526 -4.480506 0.979440 24.069352 -3.775477 -9.189866 -1.403847 0.000000 0.000000 0.000000 -3.511547 2.705338 -31.366968 2.726144 0.581625 32.073608 -3.276420 -2.494120 -12.437176 0.000000 0.000000 0.000000 0.286020 -0.627594 14.794791 -0.536337 0.354569 -7.643058 -6.761867 5.855542 4.244429 17.675840 -7.525279 -21.206005 0.000000 0.000000 0.000000 -6.620244 -3.899434 0.452528 -6.116778 1.798299 -0.601595 -41.042317 -53.116402 22.324387 0.000000 0.000000 0.000000 7.326645 -4.973337 -2.310037 15.607629 -7.765135 -2.062581 50.764941 46.098630 25.025141 0.000000 0.000000 0.000000 
-0.004849 0.915165 -0.143040 -3.938350 -2.418070 14.019159 14.813297 0.847741 -27.840763 -4.321700 0.805319 21.601480 -3.750625 -8.784968 -0.844178 0.000000 0.000000 0.000000 -3.137456 2.507243 -29.084230 1.367251 0.907091 29.227944 -2.866295 -2.137216 -10.895597 0.000000 0.000000 0.000000 0.730475 -0.646972 13.006362 -0.642119 0.416827 -8.327887 -6.496781 6.487571 4.667319 17.014333 -7.663265 -19.188102 0.000000 0.000000 0.000000 -1.653256 -1.840254 0.295742 -0.668298 1.338727 -0.015596 -40.702739 -58.033159 24.120275 0.000000 0.000000 0.000000 2.867832 -6.872424 -2.701810 11.779999 -7.463024 -1.433433 58.685324 49.422486 32.010735 0.000000 0.000000 0.000000 
-0.004365 0.924066 -0.139879 -3.617867 -2.014419 14.054019 13.792598 0.476570 -25.933494 -3.812088 0.604751 20.716081 -2.783406 -8.035456 -3.146255 0.000000 0.000000 0.000000 -3.335797 2.269601 -27.105880 0.892903 0.927144 26.684457 -2.463247 -1.351320 -10.040127 0.000000 0.000000 0.000000 1.222540 -0.634906 10.954098 -0.828330 0.495482 -8.567016 -5.653745 7.069109 4.453404 15.829933 -6.865857 -19.330542 0.000000 0.000000 0.000000 4.500918 0.791075 0.447372 3.181279 0.175019 0.294353 -30.980685 -59.271580 18.482881 0.000000 0.000000 0.000000 -2.549819 -9.106883 -3.047515 8.184113 -6.561958 -0.835475 64.275887 54.228854 39.726402 0.000000 0.000000 0.000000 
-0.002614 0.929509 -0.136338 -3.213833 -1.613772 13.856809 12.763596 0.165839 -23.999548 -3.442167 0.448838 18.973357 -2.339181 -7.537449 -3.997884 0.000000 0.000000 0.000000 -3.346974 2.090942 -25.299875 -0.035994 1.106959 24.581953 -2.255612 -1.130055 -9.373732 0.000000 0.000000 0.000000 1.588955 -0.630982 9.818252 -0.628763 0.450150 -9.910984 -4.856970 7.396693 5.036781 15.042582 -6.893245 -17.475960 0.000000 0.000000 0.000000 10.134069 4.601913 0.508921 5.416037 -1.975031 0.295120 -14.515051 -54.751782 7.876434 0.000000 0.000000 0.000000 -8.382166 -11.181731 -3.113295 5.298616 -4.010424 -0.453745 59.510601 57.693224 39.638216 0.000000 0.000000 0.000000 
0.000588 0.934564 -0.132972 -2.949383 -1.555444 13.792024 11.545509 -0.107080 -22.106060 -2.345018 0.136554 16.512019 -2.357916 -7.462150 -3.815981 0.000000 0.000000 0.000000 -3.789287 1.900331 -23.794347 0.101562 0.971745 22.873360 -2.166264 -1.140249 -8.916758 0.000000 0.000000 0.000000 1.704066 -0.566176 8.334415 -0.461813 0.387197 -9.608077 -3.362592 7.834755 3.578696 13.819624 -6.227925 -16.820585 0.000000 0.000000 0.000000 15.917165 7.477233 1.188845 5.569586 -3.114353 0.189846 -4.026807 -45.569612 1.985728 0.000000 0.000000 0.000000 -14.295518 -12.852992 -2.768026 3.508637 -2.370435 -0.263700 44.973524 59.601978 31.556064 0.000000 0.000000 0.000000 
0.004766 0.938919 -0.129842 -2.543869 -1.075338 14.099724 10.283384 -0.363066 -20.368462 -1.782851 0.007114 13.049362 -2.290835 -6.810988 -3.017904 0.000000 0.000000 0.000000 -4.037651 1.768741 -22.802322 -0.439469 1.008804 20.900030 -2.124141 -1.738102 -7.824826 0.000000 0.000000 0.000000 2.367647 -0.594484 7.343321 -0.382838 0.383155 -10.471930 -2.434615 8.212995 2.626175 13.385563 -6.395693 -14.821016 0.000000 0.000000 0.000000 19.505507 11.479799 1.480828 6.951413 -6.294939 -0.096147 0.928661 -36.593039 -0.026042 0.000000 0.000000 0.000000 -19.023836 -15.440511 -2.601675 1.788656 0.387078 -0.195274 28.014685 57.092265 20.091185 0.000000 0.000000 0.000000 
0.009161 0.942653 -0.127499 -2.130392 -1.015194 14.598621 9.351224 -0.510741 -19.742833 -1.623685 -0.003664 10.945731 -2.455719 -6.379141 -1.700053 0.000000 0.000000 0.000000 -4.880667 1.596553 -21.928416 -0.438796 0.897217 18.770178 -1.839275 -1.356896 -6.974457 0.000000 0.000000 0.000000 2.645264 -0.566371 6.299757 -0.196562 0.323611 -10.713458 -1.583504 8.627575 1.509178 12.783781 -6.239924 -13.667977 0.000000 0.000000 0.000000 22.869929 14.812895 2.020174 7.612315 -7.754128 -0.254404 4.447830 -30.039481 -0.924568 0.000000 0.000000 0.000000 -23.096817 -17.383304 -2.166713 1.314751 1.856727 -0.222129 13.728918 51.247405 10.640132 0.000000 0.000000 0.000000 
0.012864 0.944668 -0.126446 -1.762889 -0.765998 14.786328 8.553584 -0.629809 -19.273594 -1.514516 -0.010408 9.576672 -2.550129 -6.120937 -0.911388 0.000000 0.000000 0.000000 -5.430805 1.488082 -21.498966 -0.612286 0.880737 17.723605 -1.729386 -1.460254 -6.261218 0.000000 0.000000 0.000000 3.128057 -0.608303 6.072488 -0.140600 0.332405 -11.774748 -1.136283 9.201822 0.799580 12.880618 -6.450394 -12.837235 0.000000 0.000000 0.000000 23.459914 17.240634 2.069023 10.344896 -9.061213 -0.428487 5.134846 -24.921216 -0.871587 0.000000 0.000000 0.000000 -25.002979 -19.880907 -2.168376 0.227109 3.793524 -0.244823 6.784418 45.937126 6.475812 0.000000 0.000000 0.000000 
0.015189 0.945917 -0.127338 -1.485173 -0.480710 15.030311 7.723758 -0.750837 -19.118024 -0.787419 -0.132327 8.586206 -2.773619 -6.350524 -0.456354 0.000000 0.000000 0.000000 -5.645269 1.443945 -21.416395 -0.488247 0.801429 16.970372 -1.996016 -2.609640 -5.690943 0.000000 0.000000 0.000000 3.449600 -0.638657 5.937905 0.154429 0.265178 -12.783828 -0.586823 9.488110 0.509126 12.200529 -5.877153 -13.205602 0.000000 0.000000 0.000000 24.315816 19.554192 2.136839 10.495971 -9.968993 -0.561825 6.757137 -21.100773 -1.025107 0.000000 0.000000 0.000000 -26.946415 -21.209992 -1.925470 0.579979 4.259671 -0.291162 1.242539 41.461842 3.712889 0.000000 0.000000 0.000000 
0.015843 0.946345 -0.130314 -1.137126 0.330700 15.542724 7.312482 -0.858043 -19.605823 -0.573923 -0.159731 7.781256 -3.196220 -6.959967 0.090344 0.000000 0.000000 0.000000 -5.875198 1.390144 -21.619772 -0.639881 0.792847 16.592018 -2.204208 -3.317531 -5.699476 0.000000 0.000000 0.000000 3.338589 -0.606361 5.550763 1.075003 0.006585 -13.412892 -0.269548 9.712283 -0.034521 11.954277 -5.458602 -13.968620 0.000000 0.000000 0.000000 24.342130 21.643482 2.069283 10.548154 -11.521525 -0.804482 6.340737 -18.704037 -0.836753 0.000000 0.000000 0.000000 -27.110240 -22.148456 -2.090484 0.140812 5.365253 -0.325415 -2.041437 37.951455 2.326742 0.000000 0.000000 0.000000 
0.015095 0.946839 -0.134639 -1.068855 1.244509 15.823322 7.017860 -0.942787 -19.726088 0.125264 -0.248546 6.627716 -3.670398 -7.636547 0.663350 0.000000 0.000000 0.000000 -5.542631 1.403685 -21.870705 -0.658160 0.748000 16.128755 -2.626820 -4.887471 -5.176409 0.000000 0.000000 0.000000 3.657983 -0.674214 5.909664 1.609291 -0.078623 -15.033324 -0.048103 9.949698 0.057648 11.768160 -4.833802 -15.792540 0.000000 0.000000 0.000000 24.074662 22.230756 2.055512 9.924593 -12.493890 -0.947345 6.570805 -15.987686 -0.753244 0.000000 0.000000 0.000000 -26.240998 -22.776385 -2.540114 0.148922 6.903968 -0.408207 -4.640773 33.552707 1.300923 0.000000 0.000000 0.000000 
0.013349 0.946614 -0.139202 -1.146705 1.977204 16.146688 7.227140 -0.981919 -20.601064 0.302148 -0.286606 6.747118 -3.965232 -8.107796 0.931140 0.000000 0.000000 0.000000 -5.496026 1.383973 -21.994023 -0.494043 0.671398 15.809152 -2.664728 -4.977360 -5.403585 0.000000 0.000000 0.000000 3.592730 -0.644489 5.528228 2.263921 -0.224302 -15.864183 -0.061074 10.412200 -0.082331 11.722532 -4.439703 -16.981595 0.000000 0.000000 0.000000 24.298756 22.738645 2.271040 9.732039 -14.546517 -1.270288 7.492603 -13.920967 -0.802323 0.000000 0.000000 0.000000 -25.408411 -22.857258 -2.968938 -0.117685 9.425056 -0.520943 -5.810810 28.819720 0.827064 0.000000 0.000000 0.000000 
0.011258 0.946765 -0.143147 -1.529691 2.285948 16.341247 7.680097 -0.958837 -21.247119 0.571630 -0.339596 6.938086 -4.074456 -8.220138 1.121863 0.000000 0.000000 0.000000 -4.802035 1.482319 -22.266109 -0.717474 0.716041 15.718071 -2.701543 -5.098510 -5.427092 0.000000 0.000000 0.000000 3.831399 -0.682074 5.620538 2.629318 -0.241937 -17.620259 0.311181 11.108280 -0.248645 11.994348 -4.282434 -17.995780 0.000000 0.000000 0.000000 25.830869 22.034682 3.098191 9.484661 -16.909495 -1.660383 8.545313 -10.392719 -0.734986 0.000000 0.000000 0.000000 -25.157658 -21.903448 -3.092752 -0.856882 12.476031 -0.641061 -7.814709 22.524225 0.267336 0.000000 0.000000 0.000000 
0.009240 0.947182 -0.145594 -1.658337 2.757565 16.760983 7.942733 -0.964826 -21.585362 0.727723 -0.337682 6.255240 -4.341031 -8.467504 1.610033 0.000000 0.000000 0.000000 -4.928489 1.456160 -22.453408 -0.437053 0.624805 15.524711 -2.520540 -4.512838 -5.675692 0.000000 0.000000 0.000000 3.537061 -0.611957 5.038140 3.367350 -0.351182 -19.238363 0.474937 11.441249 -0.416074 12.665628 -4.356099 -19.049479 0.000000 0.000000 0.000000 28.461722 21.380408 4.249610 9.544428 -19.077281 -2.059693 9.704514 -7.385850 -0.666747 0.000000 0.000000 0.000000 -26.262074 -21.140697 -2.891635 -1.610728 16.161275 -0.778165 -8.994143 15.666728 0.079248 0.000000 0.000000 0.000000 
0.007830 0.948149 -0.146365 -2.031181 2.945930 16.816878 8.434576 -0.902751 -21.328026 0.784299 -0.314604 5.520704 -4.495187 -8.523856 2.007593 0.000000 0.000000 0.000000 -4.219591 1.536264 -22.166948 -1.018425 0.756886 15.337430 -2.368640 -3.955201 -5.945084 0.000000 0.000000 0.000000 3.497939 -0.603362 4.965895 4.024748 -0.417454 -21.051608 0.730898 12.295667 -0.798620 13.087670 -4.202734 -20.279538 0.000000 0.000000 0.000000 30.915644 20.709459 5.401671 10.486537 -21.651046 -2.693869 10.725150 -4.470449 -0.559019 0.000000 0.000000 0.000000 -27.399743 -19.864698 -2.714077 -2.900290 19.038540 -0.898553 -11.107940 9.693063 0.112346 0.000000 0.000000 0.000000 
0.007125 0.949846 -0.145586 -2.088294 3.532570 16.661321 8.292292 -0.932552 -20.700480 1.294754 -0.344427 4.542591 -4.912010 -8.973073 2.616917 0.000000 0.000000 0.000000 -3.951930 1.488659 -21.040540 -1.445566 0.796260 14.150866 -2.225606 -3.664231 -5.753085 0.000000 0.000000 0.000000 3.407334 -0.558544 4.494261 4.634188 -0.485291 -22.257784 0.834808 12.960110 -1.147451 13.444135 -4.383132 -19.972939 0.000000 0.000000 0.000000 32.597696 19.556330 6.345122 11.576874 -23.642196 -3.340021 12.075242 -2.073742 -0.482419 0.000000 0.000000 0.000000 -29.378378 -19.145722 -2.487320 -4.431552 20.780267 -0.996680 -11.593600 5.587658 0.316623 0.000000 0.000000 0.000000 
